<svg width="61" height="61" viewBox="0 0 61 61" fill="none" xmlns="http://www.w3.org/2000/svg">
<path d="M0 61V0H61V61H0Z" fill="#FFD600"/>
<path d="M39.8838 45.6602C41.0564 47.5647 42.3306 49.3897 45.0299 49.3897C47.297 49.3897 48.4865 48.2629 48.4865 46.704C48.4865 44.8384 47.2564 44.1759 44.7621 43.0897L43.3947 42.5068C39.4484 40.8327 36.8237 38.735 36.8237 34.304C36.8237 30.2204 39.9499 27.1128 44.835 27.1128C48.3137 27.1128 50.813 28.3176 52.6159 31.4726L48.3561 34.1956C47.419 32.5215 46.4057 31.8623 44.835 31.8623C43.2321 31.8623 42.2171 32.8739 42.2171 34.1956C42.2171 35.829 43.2338 36.4899 45.5806 37.5014L46.948 38.0843C51.5992 40.0651 54.2222 42.0883 54.2222 46.6362C54.2222 51.5365 50.3521 54.2222 45.1569 54.2222C40.0753 54.2222 37.1897 51.6721 35.5833 48.5153L39.8838 45.6602ZM20.252 45.7991C21.1094 47.3343 22.4124 48.5153 24.2865 48.5153C26.0792 48.5153 27.1111 47.8071 27.1111 45.0536V27.1111H32.7587V45.9211C32.7587 51.6263 29.4494 54.2222 24.6169 54.2222C20.2503 54.2222 17.0986 51.2637 15.8142 48.5153L20.252 45.7991Z" fill="#000001"/>
</svg>
