<svg width="69" height="61" viewBox="0 0 69 61" fill="none" xmlns="http://www.w3.org/2000/svg">
<path d="M34.5 36.72C37.9699 36.72 40.7827 33.9352 40.7827 30.5C40.7827 27.0648 37.9699 24.28 34.5 24.28C31.0301 24.28 28.2172 27.0648 28.2172 30.5C28.2172 33.9352 31.0301 36.72 34.5 36.72Z" fill="#61DAFB"/>
<path d="M58.3634 20.2424C57.151 19.8059 55.8834 19.3694 54.5607 18.9875C54.8914 17.678 55.1669 16.3685 55.3874 15.1136C56.5447 7.91145 55.2772 2.83721 51.75 0.872987C50.7029 0.272808 49.5455 0 48.2228 0C44.365 0 39.4601 2.83721 34.5 7.58408C29.5399 2.83721 24.635 0 20.7772 0C19.4545 0 18.2971 0.272808 17.25 0.872987C13.7228 2.89177 12.4553 7.96601 13.6126 15.1136C13.8331 16.3685 14.1086 17.678 14.4393 18.9875C13.1166 19.3694 11.849 19.7513 10.6366 20.2424C3.7476 22.8614 0 26.4624 0 30.5C0 34.5376 3.80272 38.1386 10.6366 40.7576C11.849 41.1941 13.1166 41.6306 14.4393 42.0125C14.1086 43.322 13.8331 44.6315 13.6126 45.8864C12.4553 53.0886 13.7228 58.1628 17.25 60.127C18.2971 60.7272 19.4545 61 20.7772 61C24.6901 61 29.595 58.1628 34.5 53.4159C39.4601 58.1628 44.365 61 48.2228 61C49.5455 61 50.7029 60.7272 51.75 60.127C55.2772 58.1082 56.5447 53.034 55.3874 45.8864C55.1669 44.6315 54.8914 43.322 54.5607 42.0125C55.8834 41.6306 57.151 41.2487 58.3634 40.7576C65.2524 38.1386 69 34.5376 69 30.5C69 26.4624 65.2524 22.8614 58.3634 20.2424ZM50.2069 3.60107C52.4665 4.91055 53.238 8.94812 52.3011 14.6771C52.1358 15.8229 51.8602 17.0233 51.5296 18.2782C48.6637 17.6234 45.6326 17.1869 42.4361 16.9141C40.5623 14.2952 38.6334 11.949 36.7045 9.82111C40.7827 5.8381 44.9161 3.11002 48.278 3.11002C48.9944 3.11002 49.6558 3.2737 50.2069 3.60107ZM44.0343 35.9562C43.0423 37.7021 41.885 39.4481 40.6725 41.1941C38.6334 41.3578 36.5942 41.4123 34.5 41.4123C32.3506 41.4123 30.3115 41.3578 28.3275 41.1941C27.115 39.4481 26.0128 37.7021 25.0208 35.9562C23.9736 34.1556 22.9816 32.3005 22.0998 30.5C22.9816 28.6995 23.9736 26.8444 25.0208 25.0438C26.0128 23.2979 27.1701 21.5519 28.3826 19.8059C30.4217 19.6422 32.4609 19.5877 34.5551 19.5877C36.7045 19.5877 38.7436 19.6422 40.7276 19.8059C41.9401 21.5519 43.0423 23.2979 44.0343 25.0438C45.0815 26.8444 46.0735 28.6995 46.9553 30.5C46.0184 32.3005 45.0815 34.1011 44.0343 35.9562ZM48.6086 34.1556C49.4353 36.0653 50.0966 37.9204 50.7029 39.7755C48.8291 40.212 46.845 40.5394 44.7508 40.8122C45.4121 39.7755 46.1286 38.6843 46.7348 37.5385C47.3962 36.3927 48.0024 35.2469 48.6086 34.1556ZM34.5 48.9419C33.1773 47.5233 31.9097 45.9955 30.6973 44.4132C31.9649 44.4678 33.2324 44.5224 34.5 44.5224C35.7676 44.5224 37.0351 44.4678 38.3027 44.4132C37.0903 45.9955 35.8227 47.5233 34.5 48.9419ZM24.2492 40.7576C22.155 40.4848 20.1709 40.1574 18.2971 39.7209C18.9034 37.9204 19.5647 36.0107 20.3914 34.1011C20.9976 35.1923 21.6038 36.3381 22.2652 37.4293C22.9265 38.6297 23.5879 39.6664 24.2492 40.7576ZM20.3914 26.8444C19.5647 24.9347 18.9034 23.0796 18.2971 21.2245C20.1709 20.788 22.155 20.4606 24.2492 20.1878C23.5879 21.2245 22.8714 22.3157 22.2652 23.4615C21.6038 24.6073 20.9976 25.7531 20.3914 26.8444ZM34.5 12.0581C35.8227 13.4767 37.0903 15.0045 38.3027 16.5868C37.0351 16.5322 35.7676 16.4776 34.5 16.4776C33.2324 16.4776 31.9649 16.5322 30.6973 16.5868C31.9097 15.0045 33.1773 13.4767 34.5 12.0581ZM46.7348 23.5161L44.7508 20.2424C46.845 20.5152 48.8291 20.8426 50.7029 21.2791C50.0966 23.0796 49.4353 24.9893 48.6086 26.8989C48.0024 25.7531 47.3962 24.6073 46.7348 23.5161ZM16.6989 14.6771C15.762 8.94812 16.5335 4.91055 18.7931 3.60107C19.3443 3.2737 20.0056 3.11002 20.722 3.11002C24.0288 3.11002 28.1621 5.78354 32.2955 9.82111C30.3666 11.8945 28.4377 14.2952 26.5639 16.9141C23.3674 17.1869 20.3363 17.678 17.4704 18.2782C17.1398 17.0233 16.9193 15.8229 16.6989 14.6771ZM3.08626 30.5C3.08626 27.9356 6.22764 25.2075 11.7388 23.1887C12.8411 22.7522 14.0535 22.3703 15.266 22.0429C16.1478 24.771 17.25 27.6628 18.5727 30.5546C17.25 33.4463 16.0927 36.2835 15.266 39.0116C7.66054 36.8292 3.08626 33.5555 3.08626 30.5ZM18.7931 57.3989C16.5335 56.0894 15.762 52.0519 16.6989 46.3229C16.8642 45.1771 17.1398 43.9767 17.4704 42.7218C20.3363 43.3766 23.3674 43.8131 26.5639 44.0859C28.4377 46.7048 30.3666 49.051 32.2955 51.1789C28.2173 55.1619 24.0839 57.89 20.722 57.89C20.0056 57.89 19.3443 57.7263 18.7931 57.3989ZM52.3011 46.3229C53.238 52.0519 52.4665 56.0894 50.2069 57.3989C49.6558 57.7263 48.9944 57.89 48.278 57.89C44.9712 57.89 40.8379 55.2165 36.7045 51.1789C38.6334 49.1055 40.5623 46.7048 42.4361 44.0859C45.6326 43.8131 48.6637 43.322 51.5296 42.7218C51.8602 43.9767 52.0807 45.1771 52.3011 46.3229ZM57.2612 37.8113C56.1589 38.2478 54.9465 38.6297 53.734 38.9571C52.8522 36.229 51.75 33.3372 50.4273 30.4454C51.75 27.5537 52.9074 24.7165 53.734 21.9884C61.3395 24.1708 65.9137 27.4445 65.9137 30.5C65.9137 33.0644 62.7173 35.7925 57.2612 37.8113Z" fill="#61DAFB"/>
</svg>
