<svg width="61" height="37" viewBox="0 0 61 37" fill="none" xmlns="http://www.w3.org/2000/svg">
<g clip-path="url(#clip0_26_89)">
<mask id="mask0_26_89" style="mask-type:luminance" maskUnits="userSpaceOnUse" x="0" y="0" width="62" height="37">
<path d="M0 0H61.2664V36.1686H0V0Z" fill="white"/>
</mask>
<g mask="url(#mask0_26_89)">
<path fill-rule="evenodd" clip-rule="evenodd" d="M30.6332 0C22.4643 0 17.3588 4.01874 15.3166 12.0562C18.3799 8.03748 21.9538 6.53045 26.0382 7.53513C28.3686 8.1078 30.0341 9.77223 31.8778 11.613C34.881 14.6126 38.3573 18.0843 45.9498 18.0843C54.1186 18.0843 59.2242 14.0656 61.2664 6.02811C58.2031 10.0468 54.6292 11.5539 50.5448 10.5492C48.2144 9.97652 46.5488 8.31209 44.7052 6.47128C41.702 3.47174 38.2257 0 30.6332 0ZM15.3166 18.0843C7.14774 18.0843 2.04221 22.1031 0 30.1405C3.06332 26.1218 6.63719 24.6148 10.7216 25.6195C13.052 26.1932 14.7175 27.8565 16.5612 29.6974C19.5644 32.6969 23.0407 36.1686 30.6332 36.1686C38.802 36.1686 43.9076 32.1499 45.9498 24.1124C42.8865 28.1312 39.3126 29.6382 35.2282 28.6335C32.8978 28.0608 31.2322 26.3964 29.3886 24.5556C26.3854 21.5561 22.9091 18.0843 15.3166 18.0843Z" fill="#38BDF8"/>
</g>
</g>
<defs>
<clipPath id="clip0_26_89">
<rect width="61" height="37" fill="white"/>
</clipPath>
</defs>
</svg>
