<svg width="61" height="61" viewBox="0 0 61 61" fill="none" xmlns="http://www.w3.org/2000/svg">
<path d="M61 0H0V61H61V0Z" fill="#1976D2"/>
<path d="M36.4136 27.1111H13.9402V32.6418H22.0007V57.6111H28.387V32.6418H36.4136V27.1111Z" fill="white"/>
<path d="M56.2454 34.0312C56.2454 34.0312 53.2174 32.0114 49.7946 32.0114C46.3719 32.0114 45.14 33.6381 45.14 35.3766C45.14 39.8635 57.6467 39.4145 57.6467 48.4442C57.6467 62.3539 38.5774 56.1844 38.5774 56.1844V49.5117C38.5774 49.5117 42.2239 52.2601 46.5972 52.2601C50.9706 52.2601 50.8045 49.3998 50.8045 49.0067C50.8045 44.857 38.4097 44.857 38.4097 35.6579C38.4097 23.1512 56.4691 28.0854 56.4691 28.0854L56.2454 34.0312Z" fill="white"/>
</svg>
