<svg width="49" height="49" viewBox="0 0 49 49" fill="none" xmlns="http://www.w3.org/2000/svg">
<path d="M36.295 35.2783C28.4667 35.2783 22.875 26.2299 22.6717 25.8233L22.0617 24.8066L22.6717 23.7899C22.875 23.2816 28.4667 14.2333 36.295 14.2333C42.09 14.2333 46.7667 18.9099 46.7667 24.7049C46.7667 30.4999 42.09 35.2783 36.295 35.2783ZM26.84 24.7049C28.365 26.7383 32.025 31.1099 36.1934 31.1099C39.7517 31.1099 42.5984 28.2633 42.5984 24.7049C42.5984 21.1466 39.7517 18.2999 36.1934 18.2999C32.025 18.2999 28.365 22.6716 26.84 24.7049Z" fill="#009688"/>
<path d="M12.505 35.2783C6.70999 35.2783 2.03333 30.4999 2.03333 24.7049C2.03333 18.9099 6.70999 14.2333 12.505 14.2333C20.5367 14.2333 25.925 23.2816 26.1283 23.6883L26.7383 24.7049L26.1283 25.7216C25.925 26.1283 20.3333 35.2783 12.505 35.2783ZM12.505 18.2999C8.94666 18.2999 6.09999 21.1466 6.09999 24.7049C6.09999 28.2633 8.94666 31.1099 12.505 31.1099C16.775 31.1099 20.435 26.7383 21.96 24.7049C20.5367 22.6716 16.8767 18.2999 12.505 18.2999Z" fill="#009688"/>
<path d="M10.1666 23.3833H16.2666V25.4166H10.1666V23.3833Z" fill="#009688"/>
<path d="M32.5333 23.3833H38.6333V25.4166H32.5333V23.3833Z" fill="#009688"/>
<path d="M34.5666 21.35H36.5999V27.45H34.5666V21.35Z" fill="#009688"/>
</svg>
