<svg width="43" height="49" viewBox="0 0 43 49" fill="none" xmlns="http://www.w3.org/2000/svg">
<path fill-rule="evenodd" clip-rule="evenodd" d="M3.27189 9.98846L1.25616 10.9426V37.8573L3.27189 38.8115L11.4295 25.0975L3.27189 9.98846Z" fill="#9D5025"/>
<path fill-rule="evenodd" clip-rule="evenodd" d="M7.96992 37.7683L3.27191 38.8115V9.98846L7.96992 11.0041V37.7683Z" fill="#F58536"/>
<path fill-rule="evenodd" clip-rule="evenodd" d="M5.49432 8.93379L7.96992 7.76776L19.7296 25.6108L7.96992 41.0321L5.49432 39.8661V8.93379Z" fill="#9D5025"/>
<path fill-rule="evenodd" clip-rule="evenodd" d="M13.8288 39.4642L7.96991 41.0321V7.76776L13.8288 9.34084V39.4642Z" fill="#F58536"/>
<path fill-rule="evenodd" clip-rule="evenodd" d="M10.7285 6.45652L13.8288 4.98907L31.1763 27.5634L13.8288 43.8103L10.7285 42.3429V6.45652Z" fill="#9D5025"/>
<path fill-rule="evenodd" clip-rule="evenodd" d="M21.344 41.2107L13.8288 43.8109V4.98907L21.344 7.59442V41.2107Z" fill="#F58536"/>
<path fill-rule="evenodd" clip-rule="evenodd" d="M17.3361 3.33213L21.3446 1.43524L40.1125 25.6998L21.3446 47.3647L17.3361 45.4678V3.33213Z" fill="#9D5025"/>
<path fill-rule="evenodd" clip-rule="evenodd" d="M41.4445 37.8521L21.3446 47.3647V1.43524L41.4445 10.9484V37.8521Z" fill="#F58536"/>
</svg>
