<svg width="37" height="20" viewBox="0 0 37 20" fill="none" xmlns="http://www.w3.org/2000/svg">
<path d="M32.7474 0C30.9522 0 29.4438 1.22778 29.016 2.88942H24.6004C22.717 2.88942 21.1097 4.25124 20.8001 6.10869L20.6418 7.05877C20.5669 7.50858 20.3348 7.91723 19.9868 8.21198C19.6389 8.50673 19.1977 8.66846 18.7416 8.6684H17.2157C16.788 7.00676 15.2796 5.77899 13.4844 5.77899C11.6891 5.77899 10.1807 7.00676 9.75314 8.6684H7.58383C7.15606 7.00676 5.64769 5.77899 3.85246 5.77899C1.72493 5.77899 0 7.50376 0 9.6316C0 11.7594 1.72477 13.4842 3.85261 13.4842C5.64784 13.4842 7.15622 12.2564 7.58398 10.5948H9.75299C10.1806 12.2564 11.6891 13.4842 13.4842 13.4842C15.2794 13.4842 16.7878 12.2564 17.2156 10.5948H18.7418C19.1978 10.5948 19.639 10.7565 19.9869 11.0513C20.3348 11.346 20.5669 11.7546 20.6418 12.2044L20.8001 13.1545C21.1097 15.0119 22.717 16.3738 24.6004 16.3738H25.1634C25.591 18.0353 27.0996 19.2632 28.8948 19.2632C31.0225 19.2632 32.7474 17.5384 32.7474 15.4106C32.7474 13.2828 31.0226 11.558 28.8948 11.558C27.0996 11.558 25.591 12.7856 25.1634 14.4474H24.6004C24.1444 14.4474 23.7031 14.2857 23.3552 13.991C23.0072 13.6962 22.7752 13.2876 22.7002 12.8378L22.5421 11.8877C22.3972 11.0138 21.9549 10.2169 21.2901 9.6316C21.9549 9.04633 22.3972 8.24936 22.5421 7.37551L22.7004 6.42544C22.7753 5.97565 23.0074 5.56702 23.3553 5.27228C23.7032 4.97753 24.1444 4.81578 24.6004 4.8158H29.016C29.4438 6.47744 30.9522 7.70522 32.7474 7.70522C34.8751 7.70522 36.6 5.98044 36.6 3.85261C36.6 1.72477 34.8752 0 32.7474 0ZM32.7474 1.92638C33.0004 1.92636 33.2508 1.97617 33.4846 2.07296C33.7183 2.16976 33.9306 2.31164 34.1095 2.49051C34.2884 2.66939 34.4302 2.88174 34.527 3.11545C34.6238 3.34916 34.6736 3.59965 34.6736 3.85261C34.6737 4.10558 34.6239 4.35609 34.5271 4.58981C34.4303 4.82354 34.2884 5.03591 34.1095 5.2148C33.9307 5.39369 33.7183 5.53558 33.4846 5.63239C33.2509 5.72919 33.0004 5.77901 32.7474 5.77899C32.4944 5.77903 32.2439 5.72923 32.0102 5.63243C31.7764 5.53564 31.564 5.39374 31.3851 5.21485C31.2063 5.03596 31.0644 4.82359 30.9676 4.58985C30.8708 4.35611 30.821 4.10559 30.821 3.85261C30.821 3.59963 30.8708 3.34913 30.9676 3.11541C31.0644 2.88169 31.2063 2.66933 31.3852 2.49046C31.5641 2.31159 31.7765 2.16971 32.0102 2.07292C32.2439 1.97614 32.4944 1.92634 32.7474 1.92638ZM3.85261 7.70522C4.10559 7.70518 4.35611 7.75498 4.58985 7.85177C4.82359 7.94857 5.03596 8.09046 5.21485 8.26935C5.39374 8.44824 5.53564 8.66062 5.63243 8.89435C5.72923 9.12809 5.77903 9.37861 5.77899 9.6316C5.77903 9.88458 5.72923 10.1351 5.63243 10.3688C5.53564 10.6026 5.39374 10.815 5.21485 10.9938C5.03596 11.1727 4.82359 11.3146 4.58985 11.4114C4.35611 11.5082 4.10559 11.558 3.85261 11.558C3.59963 11.558 3.34913 11.5082 3.11541 11.4114C2.88169 11.3146 2.66933 11.1727 2.49046 10.9938C2.31159 10.8149 2.16971 10.6025 2.07292 10.3688C1.97613 10.1351 1.92634 9.88457 1.92638 9.6316C1.92634 9.37862 1.97613 9.12812 2.07292 8.89439C2.16971 8.66066 2.31159 8.44829 2.49046 8.2694C2.66933 8.09052 2.88169 7.94862 3.11541 7.85181C3.34913 7.75501 3.59963 7.7052 3.85261 7.70522ZM13.4842 7.70522C13.7372 7.70518 13.9877 7.75498 14.2214 7.85177C14.4552 7.94857 14.6676 8.09046 14.8464 8.26935C15.0253 8.44824 15.1672 8.66062 15.264 8.89435C15.3608 9.12809 15.4106 9.37861 15.4106 9.6316C15.4106 9.88458 15.3608 10.1351 15.264 10.3688C15.1672 10.6026 15.0253 10.815 14.8464 10.9938C14.6676 11.1727 14.4552 11.3146 14.2214 11.4114C13.9877 11.5082 13.7372 11.558 13.4842 11.558C13.2312 11.558 12.9807 11.5082 12.747 11.4114C12.5133 11.3146 12.3009 11.1727 12.1221 10.9938C11.9432 10.8149 11.8013 10.6025 11.7045 10.3688C11.6077 10.1351 11.5579 9.88457 11.558 9.6316C11.5579 9.37861 11.6077 9.12809 11.7045 8.89435C11.8013 8.66062 11.9432 8.44824 12.1221 8.26935C12.301 8.09046 12.5134 7.94857 12.7471 7.85177C12.9809 7.75498 13.2312 7.70518 13.4842 7.70522ZM28.8949 13.4842C29.1479 13.4842 29.3984 13.534 29.6321 13.6308C29.8659 13.7276 30.0782 13.8695 30.2571 14.0484C30.436 14.2273 30.5778 14.4397 30.6746 14.6734C30.7714 14.9071 30.8212 15.1576 30.8212 15.4106C30.8212 15.6635 30.7714 15.914 30.6746 16.1477C30.5778 16.3815 30.4359 16.5938 30.257 16.7727C30.0782 16.9515 29.8658 17.0934 29.6321 17.1902C29.3984 17.287 29.1479 17.3368 28.8949 17.3368C28.642 17.3369 28.3915 17.2871 28.1577 17.1903C27.924 17.0935 27.7116 16.9516 27.5327 16.7727C27.3539 16.5939 27.212 16.3815 27.1152 16.1478C27.0184 15.9141 26.9685 15.6636 26.9686 15.4106C26.9685 15.1576 27.0183 14.9071 27.1151 14.6733C27.2119 14.4396 27.3538 14.2272 27.5327 14.0483C27.7116 13.8694 27.924 13.7276 28.1577 13.6308C28.3914 13.534 28.642 13.4842 28.8949 13.4842Z" fill="#EA4B71"/>
</svg>
