<svg width="37" height="37" viewBox="0 0 37 37" fill="none" xmlns="http://www.w3.org/2000/svg">
<g clip-path="url(#clip0_26_138)">
<path d="M35.1246 17.2268C35.0479 17.2268 34.9712 17.2268 34.8946 17.246L28.7626 5.90202C28.8776 5.69111 28.9351 5.46129 28.9351 5.21211C28.9351 4.38815 28.2644 3.73667 27.4596 3.73667C27.038 3.73667 26.6547 3.90899 26.3865 4.19646L14.1612 1.76286C14.0845 1.03467 13.4521 0.4599 12.6856 0.4599C11.8808 0.4599 11.2102 1.13059 11.2102 1.93534C11.2102 2.18452 11.2676 2.41434 11.3825 2.62525L1.85885 16.2879C1.74402 16.2496 1.60982 16.2304 1.47562 16.2304C0.651663 16.2304 0.000183105 16.9011 0.000183105 17.706C0.000183105 18.5299 0.670878 19.1814 1.47562 19.1814H1.53311L6.6687 31.886C6.592 32.0777 6.5345 32.2885 6.5345 32.4991C6.5345 33.3232 7.2052 33.9747 8.01009 33.9747C8.4316 33.9747 8.81484 33.8023 9.08308 33.5149L24.5088 35.0286C24.662 35.6802 25.256 36.14 25.9459 36.14C26.7699 36.14 27.4215 35.4693 27.4215 34.6646C27.4215 34.3004 27.2873 33.9555 27.0766 33.7064L34.8756 20.1778C34.9523 20.1971 35.0288 20.1971 35.1247 20.1971C35.9487 20.1971 36.6002 19.5264 36.6002 18.7215C36.6002 17.8975 35.9486 17.2268 35.1246 17.2268ZM26.2715 6.13199C26.444 6.36196 26.6932 6.53459 26.9614 6.6302L24.6236 24.2787C24.4703 24.3172 24.3361 24.3554 24.2021 24.432L11.3633 13.2797C11.4015 13.1647 11.4208 13.0305 11.4208 12.8963C11.4208 12.8005 11.4015 12.7047 11.4015 12.609L26.2715 6.13199ZM33.7065 19.1049L25.8116 24.5278C25.7503 24.4853 25.6863 24.4469 25.62 24.4129L27.9769 6.61084H27.9961L34.0132 17.725C33.7832 17.9933 33.649 18.319 33.649 18.7023C33.649 18.8555 33.6682 18.99 33.7065 19.1049ZM9.73441 11.4399C9.02544 11.5549 8.46973 12.1681 8.46973 12.8963V12.992L3.20009 16.1154L11.4015 4.36893L9.73441 11.4399ZM10.2711 14.3527C10.4626 14.3142 10.6543 14.2185 10.8076 14.1035L23.5505 25.1792C23.493 25.3516 23.4547 25.5242 23.4547 25.7157V25.7924L9.25541 31.6561C9.04465 31.3495 8.71891 31.1196 8.33568 31.043L10.2711 14.3527ZM23.8379 26.7314C24.0296 26.9421 24.2979 27.1146 24.6044 27.1721L25.3135 33.3423C25.007 33.4957 24.7769 33.7449 24.6236 34.0322L9.65786 32.5758L23.8379 26.7314ZM25.5818 27.0571C26.08 26.8081 26.4057 26.3099 26.4057 25.7349C26.4057 25.6007 26.3865 25.4858 26.3482 25.3517L33.5724 20.3886L26.2525 33.0934L25.5818 27.0571ZM25.965 5.17383L10.8843 11.7466L10.7118 11.6314L12.6279 3.41077H12.6854C13.2029 3.41077 13.6628 3.14253 13.9311 2.74023L25.9648 5.1354L25.965 5.17383ZM2.95091 17.706C2.95091 17.6101 2.93169 17.5143 2.93169 17.4185L8.89124 13.9118C9.00622 14.0268 9.14027 14.1417 9.29353 14.2183L7.35846 30.8705L2.4719 18.8175C2.75937 18.5491 2.95091 18.1467 2.95091 17.706Z" fill="white"/>
</g>
<defs>
<clipPath id="clip0_26_138">
<rect width="36.6" height="36.6" fill="white"/>
</clipPath>
</defs>
</svg>
