<svg width="49" height="49" viewBox="0 0 49 49" fill="none" xmlns="http://www.w3.org/2000/svg">
<path d="M24.4479 5.08339C22.8669 5.08847 21.771 5.22775 20.4463 5.4565C16.5341 6.13767 15.8214 7.56812 15.8214 10.2043V14.2334H24.9714V16.2667H15.4737H11.0512C8.37131 16.2667 6.02586 17.5294 5.28268 20.556C4.44291 24.03 4.4053 26.2057 5.28268 29.8331C5.9486 32.5385 7.41565 34.5667 10.0966 34.5667H13.7891V29.3777C13.7891 26.3622 16.5199 23.3834 19.6492 23.3834H27.0058C29.5708 23.3834 32.0891 21.4904 32.0891 18.9334V10.2043C32.0891 7.72469 30.3008 5.87029 27.8008 5.45447C27.8628 5.44837 26.0156 5.07729 24.4479 5.08339ZM19.3808 9.15005C20.2155 9.15005 20.9058 9.83834 20.9058 10.6771C20.9058 11.524 20.2155 12.2001 19.3808 12.2001C18.5298 12.2001 17.8558 11.525 17.8558 10.6771C17.8558 9.84139 18.5298 9.15005 19.3808 9.15005Z" fill="#0277BD"/>
<path d="M23.4626 43.7166C25.0435 43.7115 26.1394 43.5722 27.4642 43.3435C31.3763 42.6623 32.089 41.2319 32.089 38.5957V34.5666H22.939V32.5333H32.4377H36.8602C39.5401 32.5333 41.8856 31.2706 42.6288 28.244C43.4685 24.77 43.5061 22.5943 42.6288 18.9669C41.9618 16.2615 40.4948 14.2333 37.8138 14.2333H34.1213V19.4223C34.1213 22.4378 31.3905 25.4166 28.2612 25.4166H20.9046C18.3396 25.4166 15.8213 27.3096 15.8213 29.8666V38.5957C15.8213 41.0753 17.6096 42.9297 20.1096 43.3455C20.0476 43.3516 21.8949 43.7227 23.4626 43.7166ZM28.5306 39.6499C27.696 39.6499 27.0056 38.9617 27.0056 38.1229C27.0056 37.276 27.696 36.5999 28.5306 36.5999C29.3816 36.5999 30.0556 37.275 30.0556 38.1229C30.0556 38.9586 29.3806 39.6499 28.5306 39.6499Z" fill="#FFC107"/>
</svg>
