<svg width="55" height="55" viewBox="0 0 55 55" fill="none" xmlns="http://www.w3.org/2000/svg">
<path d="M9.14996 42.3188L26.5739 9.64868C26.941 8.96014 27.9338 8.97273 28.2826 9.67156L34.3125 21.7313L9.14996 42.3188Z" fill="#FF8F00"/>
<path d="M9.14996 42.3096L15.4932 3.19451C15.659 2.17086 17.0338 1.94897 17.5142 2.86854L29.7375 26.2971L9.14996 42.3096Z" fill="#FFA000"/>
<path d="M9.15912 42.3027L9.38787 42.1231L29.4367 25.7206L23.782 14.8824L9.15912 42.3027Z" fill="#FF6F00"/>
<path d="M9.14996 42.3187L39.6492 12.9095C40.2886 12.293 41.3557 12.6567 41.4861 13.5351L45.75 42.3187L28.5937 52.3185C27.8972 52.7097 27.0474 52.7097 26.3508 52.3185L9.14996 42.3187Z" fill="#FFC400"/>
</svg>
