<svg width="28" height="56" viewBox="0 0 28 56" fill="none" xmlns="http://www.w3.org/2000/svg">
<path d="M15.9917 53.723L14.4644 52.1676L14.4521 41.9723L14.4397 31.777L14.34 31.7627C14.2437 31.7489 11.494 33.1271 3.76484 37.0632C1.79166 38.068 0.165844 38.8789 0.152012 38.8651C0.13818 38.8512 0.176304 38.6144 0.236766 38.3388C1.2759 33.5995 3.92482 28.3266 7.22004 24.4382C10.0077 21.1487 13.3289 18.4522 17.1647 16.3643L17.5435 16.1581V26.5697L17.6659 26.6004C17.9819 26.6797 19.2747 25.8709 20.0135 25.1317C20.7906 24.3541 21.2985 23.5287 21.6503 22.4717C22.2927 20.5415 22.0049 18.358 20.8849 16.6663C20.4906 16.0706 20.0395 15.5799 16.6907 12.1038C13.0342 8.30835 12.6438 7.88575 12.2121 7.25538C11.8809 6.77198 11.6696 6.3292 11.5168 5.79859C11.3615 5.25903 11.3644 4.13059 11.5225 3.57466C11.8304 2.49222 12.5492 1.49448 13.4538 0.894118C14.0381 0.506274 14.9993 0.141306 15.4876 0.121853L15.6617 0.114912L15.4662 0.0826528C15.1262 0.0265414 16.049 -0.0327959 16.4193 0.0213604C16.6979 0.0621242 16.7129 0.0693092 16.5415 0.0798668C16.3633 0.0907665 16.372 0.0955565 16.6392 0.133681C18.0172 0.330364 19.3636 1.21637 20.3756 2.59256C20.8379 3.22123 24.9314 9.86246 26.9927 13.3279C27.3066 13.8558 27.3465 14.0024 27.1174 13.787C26.8276 13.5144 20.5873 6.99134 19.0989 5.40517C17.3904 3.58429 17.1975 3.40153 16.7614 3.19068C16.4766 3.05289 16.3982 3.0371 16.0038 3.03798C15.4572 3.03921 15.2001 3.14977 14.799 3.55609C14.4227 3.93743 14.3003 4.26036 14.3289 4.7966C14.3521 5.23229 14.4717 5.52507 14.7744 5.8874C14.8686 6.00016 16.4488 7.6594 18.286 9.57467C20.1231 11.4899 21.8555 13.2988 22.1356 13.5946C23.4842 15.0181 24.3196 16.5879 24.7099 18.4318C24.8805 19.2377 24.9276 20.8396 24.8056 21.6838C24.5538 23.4258 23.8169 25.1128 22.7239 26.4493C22.3053 26.9613 21.4368 27.7755 20.9144 28.1459C20.2929 28.5863 20.0205 28.7442 18.6978 29.4309L17.5679 30.0174L17.5435 42.6479L17.519 55.2784L15.9917 53.723ZM8.15566 31.5948C11.4701 29.8955 13.678 28.7537 14.0068 28.569C14.4733 28.3068 14.4378 28.5854 14.4538 25.0563C14.4615 23.3493 14.4556 21.9031 14.4406 21.8426C14.3923 21.6471 14.1976 21.7048 13.7883 22.0362C10.3238 24.8404 7.7118 28.0479 5.55176 32.1507C5.17281 32.8703 5.13366 33.0749 5.39046 32.9934C5.44437 32.9762 6.68865 32.3469 8.15561 31.5948H8.15566ZM0.000247199 39.0068C0.00259332 38.9499 0.0141773 38.9383 0.0297692 38.9773C0.0438948 39.0125 0.0421352 39.0547 0.0259079 39.0709C0.00968057 39.0872 -0.00185453 39.0583 0.000247199 39.0068Z" fill="#C62B47"/>
</svg>
