<svg width="49" height="55" viewBox="0 0 49 55" fill="none" xmlns="http://www.w3.org/2000/svg">
<path d="M38.4116 2.42326H4.1634C1.8652 2.42326 0 4.31295 0 6.604V44.5317C0 46.8395 1.88186 48.7125 4.1634 48.7125H26.729C26.4792 37.4412 30.3096 15.5675 38.4199 2.38981L38.4116 2.42326Z" fill="#0F80CC"/>
<path d="M37.1625 3.65239H4.16341C3.3801 3.6546 2.6295 3.96804 2.07562 4.52424C1.52173 5.08043 1.20959 5.83415 1.20739 6.62073V41.7808C8.68486 38.8961 19.9011 36.4127 27.6617 36.5298C30.0541 25.3589 33.2235 14.3722 37.1625 3.65239Z" fill="url(#paint0_linear_26_112)"/>
<path d="M46.4053 1.18576C44.0571 -0.904617 41.2177 -0.0684686 38.4116 2.42326L37.1625 3.64404C32.3663 8.74455 28.0031 18.2098 26.5375 25.4424C27.0597 26.5879 27.4723 27.7806 27.7699 29.0045L27.9531 29.8406L28.1363 30.6935C28.1363 30.6935 28.0947 30.5262 27.9198 30.0246L27.8032 29.6901C27.7798 29.6281 27.7548 29.5668 27.7283 29.5061C27.2508 28.5035 26.7313 27.5215 26.1712 26.5629C25.8682 27.452 25.5823 28.3468 25.3135 29.2469C26.4126 31.2704 27.0788 34.7321 27.0788 34.7321C27.0788 34.7321 27.0205 34.5063 26.7457 33.7287C26.4959 33.0347 25.2802 30.8858 24.9971 30.3841C24.4975 32.2236 24.306 33.4611 24.4808 33.7621C24.8139 34.3474 25.147 35.4344 25.4384 36.4713C25.8881 38.31 26.2548 40.1681 26.5375 42.04L26.5792 42.5584C26.4929 44.6494 26.5346 46.7437 26.7041 48.8296C26.9206 51.4467 27.3286 53.6959 27.8448 54.9L28.1946 54.7077C27.4452 52.333 27.1287 49.2309 27.262 45.6438C27.4701 40.167 28.7192 33.5615 31.0423 26.68C34.9809 16.203 40.41 7.85823 45.3894 3.87816C40.8513 7.99201 34.7145 21.3035 32.8826 26.2284C30.8258 31.747 29.3687 36.9312 28.486 41.8895C30.0015 37.2405 34.8977 35.2338 34.8977 35.2338C34.8977 35.2338 37.3124 32.2571 40.1102 28.0011L34.7394 29.4392L33.0075 30.2085C33.0075 30.2085 37.4207 27.5077 41.226 26.2786C46.4469 18.0258 52.1341 6.29463 46.4053 1.1774" fill="#003B57"/>
<defs>
<linearGradient id="paint0_linear_26_112" x1="28.1456" y1="1.11967" x2="28.1456" y2="51.854" gradientUnits="userSpaceOnUse">
<stop stop-color="#97D9F6"/>
<stop offset="0.92024" stop-color="#0F80CC"/>
<stop offset="1" stop-color="#0F80CC"/>
</linearGradient>
</defs>
</svg>
